<svg width="320" height="734" viewBox="0 0 320 734" fill="none" xmlns="http://www.w3.org/2000/svg">
<g opacity="0.05">
<g filter="url(#filter0_f)">
<mask id="path-1-inside-1" fill="white">
<path fill-rule="evenodd" clip-rule="evenodd" d="M54.2814 25.5132H27.582V74.7162H-22V101.415H27.582V151H54.2814V101.415H103.487V74.7161H54.2814V25.5132Z"/>
</mask>
<path d="M27.582 25.5132V24.5132H26.582V25.5132H27.582ZM54.2814 25.5132H55.2814V24.5132H54.2814V25.5132ZM27.582 74.7162V75.7162H28.582V74.7162H27.582ZM-22 74.7162V73.7162H-23V74.7162H-22ZM-22 101.415H-23V102.415H-22V101.415ZM27.582 101.415H28.582V100.415H27.582V101.415ZM27.582 151H26.582V152H27.582V151ZM54.2814 151V152H55.2814V151H54.2814ZM54.2814 101.415V100.415H53.2814V101.415H54.2814ZM103.487 101.415V102.415H104.487V101.415H103.487ZM103.487 74.7161H104.487V73.7161H103.487V74.7161ZM54.2814 74.7161H53.2814V75.7161H54.2814V74.7161ZM27.582 26.5132H54.2814V24.5132H27.582V26.5132ZM28.582 74.7162V25.5132H26.582V74.7162H28.582ZM-22 75.7162H27.582V73.7162H-22V75.7162ZM-21 101.415V74.7162H-23V101.415H-21ZM27.582 100.415H-22V102.415H27.582V100.415ZM28.582 151V101.415H26.582V151H28.582ZM54.2814 150H27.582V152H54.2814V150ZM53.2814 101.415V151H55.2814V101.415H53.2814ZM103.487 100.415H54.2814V102.415H103.487V100.415ZM102.487 74.7161V101.415H104.487V74.7161H102.487ZM54.2814 75.7161H103.487V73.7161H54.2814V75.7161ZM53.2814 25.5132V74.7161H55.2814V25.5132H53.2814Z" fill="white" mask="url(#path-1-inside-1)"/>
</g>
<g filter="url(#filter1_f)">
<path fill-rule="evenodd" clip-rule="evenodd" d="M299.281 241H272.582V290.203H223V316.902H272.582V366.487H299.281V316.902H348.487V290.203H299.281V241Z" fill="white"/>
</g>
<g filter="url(#filter2_f)">
<path fill-rule="evenodd" clip-rule="evenodd" d="M54.2814 596H27.582V645.203H-22V671.902H27.582V721.487H54.2814V671.902H103.487V645.203H54.2814V596Z" fill="white"/>
</g>
<g filter="url(#filter3_f)">
<path fill-rule="evenodd" clip-rule="evenodd" d="M50.2814 10H23.582V59.203H-26L-26 85.9023H23.582V135.487H50.2814V85.9023H99.4868V59.203H50.2814V10Z" fill="white"/>
</g>
<g filter="url(#filter4_f)">
<mask id="path-6-inside-2" fill="white">
<path fill-rule="evenodd" clip-rule="evenodd" d="M291.281 249H264.582V298.203H215L215 324.902H264.582V374.487H291.281V324.902H340.487V298.203H291.281V249Z"/>
</mask>
<path d="M264.582 249V248H263.582V249H264.582ZM291.281 249H292.281V248H291.281V249ZM264.582 298.203V299.203H265.582V298.203H264.582ZM215 298.203V297.203H214V298.203H215ZM215 324.902H214L214 325.902H215V324.902ZM264.582 324.902H265.582V323.902H264.582V324.902ZM264.582 374.487H263.582V375.487H264.582V374.487ZM291.281 374.487V375.487H292.281V374.487H291.281ZM291.281 324.902V323.902H290.281V324.902H291.281ZM340.487 324.902V325.902H341.487V324.902H340.487ZM340.487 298.203H341.487V297.203H340.487V298.203ZM291.281 298.203H290.281V299.203H291.281V298.203ZM264.582 250H291.281V248H264.582V250ZM265.582 298.203V249H263.582V298.203H265.582ZM215 299.203H264.582V297.203H215V299.203ZM216 324.902L216 298.203H214L214 324.902H216ZM264.582 323.902H215V325.902H264.582V323.902ZM265.582 374.487V324.902H263.582V374.487H265.582ZM291.281 373.487H264.582V375.487H291.281V373.487ZM290.281 324.902V374.487H292.281V324.902H290.281ZM340.487 323.902H291.281V325.902H340.487V323.902ZM339.487 298.203V324.902H341.487V298.203H339.487ZM291.281 299.203H340.487V297.203H291.281V299.203ZM290.281 249V298.203H292.281V249H290.281Z" fill="white" mask="url(#path-6-inside-2)"/>
</g>
<g filter="url(#filter5_f)">
<mask id="path-8-inside-3" fill="white">
<path fill-rule="evenodd" clip-rule="evenodd" d="M46.2814 604H19.582V653.203H-30V679.902H19.582V729.487H46.2814V679.902H95.4868V653.203H46.2814V604Z"/>
</mask>
<path d="M19.582 604V603H18.582V604H19.582ZM46.2814 604H47.2814V603H46.2814V604ZM19.582 653.203V654.203H20.582V653.203H19.582ZM-30 653.203V652.203H-31V653.203H-30ZM-30 679.902H-31V680.902H-30V679.902ZM19.582 679.902H20.582V678.902H19.582V679.902ZM19.582 729.487H18.582V730.487H19.582V729.487ZM46.2814 729.487V730.487H47.2814V729.487H46.2814ZM46.2814 679.902V678.902H45.2814V679.902H46.2814ZM95.4868 679.902V680.902H96.4868V679.902H95.4868ZM95.4868 653.203H96.4868V652.203H95.4868V653.203ZM46.2814 653.203H45.2814V654.203H46.2814V653.203ZM19.582 605H46.2814V603H19.582V605ZM20.582 653.203V604H18.582V653.203H20.582ZM-30 654.203H19.582V652.203H-30V654.203ZM-29 679.902V653.203H-31V679.902H-29ZM19.582 678.902H-30V680.902H19.582V678.902ZM20.582 729.487V679.902H18.582V729.487H20.582ZM46.2814 728.487H19.582V730.487H46.2814V728.487ZM45.2814 679.902V729.487H47.2814V679.902H45.2814ZM95.4868 678.902H46.2814V680.902H95.4868V678.902ZM94.4868 653.203V679.902H96.4868V653.203H94.4868ZM46.2814 654.203H95.4868V652.203H46.2814V654.203ZM45.2814 604V653.203H47.2814V604H45.2814Z" fill="white" mask="url(#path-8-inside-3)"/>
</g>
</g>
<defs>
<filter id="filter0_f" x="-26" y="21.5132" width="133.487" height="133.487" filterUnits="userSpaceOnUse" color-interpolation-filters="sRGB">
<feFlood flood-opacity="0" result="BackgroundImageFix"/>
<feBlend mode="normal" in="SourceGraphic" in2="BackgroundImageFix" result="shape"/>
<feGaussianBlur stdDeviation="2" result="effect1_foregroundBlur"/>
</filter>
<filter id="filter1_f" x="219" y="237" width="133.487" height="133.487" filterUnits="userSpaceOnUse" color-interpolation-filters="sRGB">
<feFlood flood-opacity="0" result="BackgroundImageFix"/>
<feBlend mode="normal" in="SourceGraphic" in2="BackgroundImageFix" result="shape"/>
<feGaussianBlur stdDeviation="2" result="effect1_foregroundBlur"/>
</filter>
<filter id="filter2_f" x="-26" y="592" width="133.487" height="133.487" filterUnits="userSpaceOnUse" color-interpolation-filters="sRGB">
<feFlood flood-opacity="0" result="BackgroundImageFix"/>
<feBlend mode="normal" in="SourceGraphic" in2="BackgroundImageFix" result="shape"/>
<feGaussianBlur stdDeviation="2" result="effect1_foregroundBlur"/>
</filter>
<filter id="filter3_f" x="-30" y="6" width="133.487" height="133.487" filterUnits="userSpaceOnUse" color-interpolation-filters="sRGB">
<feFlood flood-opacity="0" result="BackgroundImageFix"/>
<feBlend mode="normal" in="SourceGraphic" in2="BackgroundImageFix" result="shape"/>
<feGaussianBlur stdDeviation="2" result="effect1_foregroundBlur"/>
</filter>
<filter id="filter4_f" x="211" y="245" width="133.487" height="133.487" filterUnits="userSpaceOnUse" color-interpolation-filters="sRGB">
<feFlood flood-opacity="0" result="BackgroundImageFix"/>
<feBlend mode="normal" in="SourceGraphic" in2="BackgroundImageFix" result="shape"/>
<feGaussianBlur stdDeviation="2" result="effect1_foregroundBlur"/>
</filter>
<filter id="filter5_f" x="-34" y="600" width="133.487" height="133.487" filterUnits="userSpaceOnUse" color-interpolation-filters="sRGB">
<feFlood flood-opacity="0" result="BackgroundImageFix"/>
<feBlend mode="normal" in="SourceGraphic" in2="BackgroundImageFix" result="shape"/>
<feGaussianBlur stdDeviation="2" result="effect1_foregroundBlur"/>
</filter>
</defs>
</svg>
