<svg width="1920" height="372" viewBox="0 0 1920 372" fill="none" xmlns="http://www.w3.org/2000/svg">
<g opacity="0.05">
<g filter="url(#filter0_f)">
<mask id="path-1-inside-1" fill="white">
<path fill-rule="evenodd" clip-rule="evenodd" d="M642.283 229.513H615.583V278.716H566V305.415H615.583V355H642.283V305.415H691.487V278.716H642.283V229.513Z"/>
</mask>
<path d="M615.583 229.513V228.513H614.583V229.513H615.583ZM642.283 229.513H643.283V228.513H642.283V229.513ZM615.583 278.716V279.716H616.583V278.716H615.583ZM566 278.716V277.716H565V278.716H566ZM566 305.415H565V306.415H566V305.415ZM615.583 305.415H616.583V304.415H615.583V305.415ZM615.583 355H614.583V356H615.583V355ZM642.283 355V356H643.283V355H642.283ZM642.283 305.415V304.415H641.283V305.415H642.283ZM691.487 305.415V306.415H692.487V305.415H691.487ZM691.487 278.716H692.487V277.716H691.487V278.716ZM642.283 278.716H641.283V279.716H642.283V278.716ZM615.583 230.513H642.283V228.513H615.583V230.513ZM616.583 278.716V229.513H614.583V278.716H616.583ZM566 279.716H615.583V277.716H566V279.716ZM567 305.415V278.716H565V305.415H567ZM615.583 304.415H566V306.415H615.583V304.415ZM616.583 355V305.415H614.583V355H616.583ZM642.283 354H615.583V356H642.283V354ZM641.283 305.415V355H643.283V305.415H641.283ZM691.487 304.415H642.283V306.415H691.487V304.415ZM690.487 278.716V305.415H692.487V278.716H690.487ZM642.283 279.716H691.487V277.716H642.283V279.716ZM641.283 229.513V278.716H643.283V229.513H641.283Z" fill="white" mask="url(#path-1-inside-1)"/>
</g>
<g filter="url(#filter1_f)">
<mask id="path-3-inside-2" fill="white">
<path fill-rule="evenodd" clip-rule="evenodd" d="M1264.28 14.5132H1237.58V63.7162H1188V90.4155H1237.58V140H1264.28V90.4155H1313.49V63.7161H1264.28V14.5132Z"/>
</mask>
<path d="M1237.58 14.5132V13.5132H1236.58V14.5132H1237.58ZM1264.28 14.5132H1265.28V13.5132H1264.28V14.5132ZM1237.58 63.7162V64.7162H1238.58V63.7162H1237.58ZM1188 63.7162V62.7162H1187V63.7162H1188ZM1188 90.4155H1187V91.4155H1188V90.4155ZM1237.58 90.4155H1238.58V89.4155H1237.58V90.4155ZM1237.58 140H1236.58V141H1237.58V140ZM1264.28 140V141H1265.28V140H1264.28ZM1264.28 90.4155V89.4155H1263.28V90.4155H1264.28ZM1313.49 90.4155V91.4155H1314.49V90.4155H1313.49ZM1313.49 63.7161H1314.49V62.7161H1313.49V63.7161ZM1264.28 63.7161H1263.28V64.7161H1264.28V63.7161ZM1237.58 15.5132H1264.28V13.5132H1237.58V15.5132ZM1238.58 63.7162V14.5132H1236.58V63.7162H1238.58ZM1188 64.7162H1237.58V62.7162H1188V64.7162ZM1189 90.4155V63.7162H1187V90.4155H1189ZM1237.58 89.4155H1188V91.4155H1237.58V89.4155ZM1238.58 140V90.4155H1236.58V140H1238.58ZM1264.28 139H1237.58V141H1264.28V139ZM1263.28 90.4155V140H1265.28V90.4155H1263.28ZM1313.49 89.4155H1264.28V91.4155H1313.49V89.4155ZM1312.49 63.7161V90.4155H1314.49V63.7161H1312.49ZM1264.28 64.7161H1313.49V62.7161H1264.28V64.7161ZM1263.28 14.5132V63.7161H1265.28V14.5132H1263.28Z" fill="white" mask="url(#path-3-inside-2)"/>
</g>
<g filter="url(#filter2_f)">
<mask id="path-5-inside-3" fill="white">
<path fill-rule="evenodd" clip-rule="evenodd" d="M1893.28 242.513H1866.58V291.716H1817V318.415H1866.58V368H1893.28V318.415H1942.49V291.716H1893.28V242.513Z"/>
</mask>
<path d="M1866.58 242.513V241.513H1865.58V242.513H1866.58ZM1893.28 242.513H1894.28V241.513H1893.28V242.513ZM1866.58 291.716V292.716H1867.58V291.716H1866.58ZM1817 291.716V290.716H1816V291.716H1817ZM1817 318.415H1816V319.415H1817V318.415ZM1866.58 318.415H1867.58V317.415H1866.58V318.415ZM1866.58 368H1865.58V369H1866.58V368ZM1893.28 368V369H1894.28V368H1893.28ZM1893.28 318.415V317.415H1892.28V318.415H1893.28ZM1942.49 318.415V319.415H1943.49V318.415H1942.49ZM1942.49 291.716H1943.49V290.716H1942.49V291.716ZM1893.28 291.716H1892.28V292.716H1893.28V291.716ZM1866.58 243.513H1893.28V241.513H1866.58V243.513ZM1867.58 291.716V242.513H1865.58V291.716H1867.58ZM1817 292.716H1866.58V290.716H1817V292.716ZM1818 318.415V291.716H1816V318.415H1818ZM1866.58 317.415H1817V319.415H1866.58V317.415ZM1867.58 368V318.415H1865.58V368H1867.58ZM1893.28 367H1866.58V369H1893.28V367ZM1892.28 318.415V368H1894.28V318.415H1892.28ZM1942.49 317.415H1893.28V319.415H1942.49V317.415ZM1941.49 291.716V318.415H1943.49V291.716H1941.49ZM1893.28 292.716H1942.49V290.716H1893.28V292.716ZM1892.28 242.513V291.716H1894.28V242.513H1892.28Z" fill="white" mask="url(#path-5-inside-3)"/>
</g>
<g filter="url(#filter3_f)">
<mask id="path-7-inside-4" fill="white">
<path fill-rule="evenodd" clip-rule="evenodd" d="M36.2825 25.5132H9.58319V74.7162H-40V101.415H9.58319V151H36.2825V101.415H85.4868V74.7161H36.2825V25.5132Z"/>
</mask>
<path d="M9.58319 25.5132V24.5132H8.58319V25.5132H9.58319ZM36.2825 25.5132H37.2825V24.5132H36.2825V25.5132ZM9.58319 74.7162V75.7162H10.5832V74.7162H9.58319ZM-40 74.7162V73.7162H-41V74.7162H-40ZM-40 101.415H-41V102.415H-40V101.415ZM9.58319 101.415H10.5832V100.415H9.58319V101.415ZM9.58319 151H8.58319V152H9.58319V151ZM36.2825 151V152H37.2825V151H36.2825ZM36.2825 101.415V100.415H35.2825V101.415H36.2825ZM85.4868 101.415V102.415H86.4868V101.415H85.4868ZM85.4868 74.7161H86.4868V73.7161H85.4868V74.7161ZM36.2825 74.7161H35.2825V75.7161H36.2825V74.7161ZM9.58319 26.5132H36.2825V24.5132H9.58319V26.5132ZM10.5832 74.7162V25.5132H8.58319V74.7162H10.5832ZM-40 75.7162H9.58319V73.7162H-40V75.7162ZM-39 101.415V74.7162H-41V101.415H-39ZM9.58319 100.415H-40V102.415H9.58319V100.415ZM10.5832 151V101.415H8.58319V151H10.5832ZM36.2825 150H9.58319V152H36.2825V150ZM35.2825 101.415V151H37.2825V101.415H35.2825ZM85.4868 100.415H36.2825V102.415H85.4868V100.415ZM84.4868 74.7161V101.415H86.4868V74.7161H84.4868ZM36.2825 75.7161H85.4868V73.7161H36.2825V75.7161ZM35.2825 25.5132V74.7161H37.2825V25.5132H35.2825Z" fill="white" mask="url(#path-7-inside-4)"/>
</g>
<g filter="url(#filter4_f)">
<path fill-rule="evenodd" clip-rule="evenodd" d="M653.283 219H626.583V268.203H577V294.902H626.583V344.487H653.283V294.902H702.487V268.203H653.283V219Z" fill="white"/>
</g>
<g filter="url(#filter5_f)">
<path fill-rule="evenodd" clip-rule="evenodd" d="M1275.28 4H1248.58V53.203H1199V79.9023H1248.58V129.487H1275.28V79.9023H1324.49V53.203H1275.28V4Z" fill="white"/>
</g>
<g filter="url(#filter6_f)">
<path fill-rule="evenodd" clip-rule="evenodd" d="M1904.28 232H1877.58V281.203H1828V307.902H1877.58V357.487H1904.28V307.902H1953.49V281.203H1904.28V232Z" fill="white"/>
</g>
<g filter="url(#filter7_f)">
<path fill-rule="evenodd" clip-rule="evenodd" d="M47.2825 15H20.5832V64.203H-29V90.9023H20.5832V140.487H47.2825V90.9023H96.4868V64.203H47.2825V15Z" fill="white"/>
</g>
</g>
<defs>
<filter id="filter0_f" x="562" y="225.513" width="133.487" height="133.487" filterUnits="userSpaceOnUse" color-interpolation-filters="sRGB">
<feFlood flood-opacity="0" result="BackgroundImageFix"/>
<feBlend mode="normal" in="SourceGraphic" in2="BackgroundImageFix" result="shape"/>
<feGaussianBlur stdDeviation="2" result="effect1_foregroundBlur"/>
</filter>
<filter id="filter1_f" x="1184" y="10.5132" width="133.487" height="133.487" filterUnits="userSpaceOnUse" color-interpolation-filters="sRGB">
<feFlood flood-opacity="0" result="BackgroundImageFix"/>
<feBlend mode="normal" in="SourceGraphic" in2="BackgroundImageFix" result="shape"/>
<feGaussianBlur stdDeviation="2" result="effect1_foregroundBlur"/>
</filter>
<filter id="filter2_f" x="1813" y="238.513" width="133.487" height="133.487" filterUnits="userSpaceOnUse" color-interpolation-filters="sRGB">
<feFlood flood-opacity="0" result="BackgroundImageFix"/>
<feBlend mode="normal" in="SourceGraphic" in2="BackgroundImageFix" result="shape"/>
<feGaussianBlur stdDeviation="2" result="effect1_foregroundBlur"/>
</filter>
<filter id="filter3_f" x="-44" y="21.5132" width="133.487" height="133.487" filterUnits="userSpaceOnUse" color-interpolation-filters="sRGB">
<feFlood flood-opacity="0" result="BackgroundImageFix"/>
<feBlend mode="normal" in="SourceGraphic" in2="BackgroundImageFix" result="shape"/>
<feGaussianBlur stdDeviation="2" result="effect1_foregroundBlur"/>
</filter>
<filter id="filter4_f" x="573" y="215" width="133.487" height="133.487" filterUnits="userSpaceOnUse" color-interpolation-filters="sRGB">
<feFlood flood-opacity="0" result="BackgroundImageFix"/>
<feBlend mode="normal" in="SourceGraphic" in2="BackgroundImageFix" result="shape"/>
<feGaussianBlur stdDeviation="2" result="effect1_foregroundBlur"/>
</filter>
<filter id="filter5_f" x="1195" y="0" width="133.487" height="133.487" filterUnits="userSpaceOnUse" color-interpolation-filters="sRGB">
<feFlood flood-opacity="0" result="BackgroundImageFix"/>
<feBlend mode="normal" in="SourceGraphic" in2="BackgroundImageFix" result="shape"/>
<feGaussianBlur stdDeviation="2" result="effect1_foregroundBlur"/>
</filter>
<filter id="filter6_f" x="1824" y="228" width="133.487" height="133.487" filterUnits="userSpaceOnUse" color-interpolation-filters="sRGB">
<feFlood flood-opacity="0" result="BackgroundImageFix"/>
<feBlend mode="normal" in="SourceGraphic" in2="BackgroundImageFix" result="shape"/>
<feGaussianBlur stdDeviation="2" result="effect1_foregroundBlur"/>
</filter>
<filter id="filter7_f" x="-33" y="11" width="133.487" height="133.487" filterUnits="userSpaceOnUse" color-interpolation-filters="sRGB">
<feFlood flood-opacity="0" result="BackgroundImageFix"/>
<feBlend mode="normal" in="SourceGraphic" in2="BackgroundImageFix" result="shape"/>
<feGaussianBlur stdDeviation="2" result="effect1_foregroundBlur"/>
</filter>
</defs>
</svg>
