<svg width="1591" height="688" viewBox="0 0 1591 688" fill="none" xmlns="http://www.w3.org/2000/svg">
<g opacity="0.05">
<g filter="url(#filter0_f)">
<mask id="path-1-inside-1" fill="white">
<path fill-rule="evenodd" clip-rule="evenodd" d="M273.283 415.513H246.583V464.716H197V491.415H246.583V541H273.283V491.415H322.487V464.716H273.283V415.513Z"/>
</mask>
<path d="M246.583 415.513V414.513H245.583V415.513H246.583ZM273.283 415.513H274.283V414.513H273.283V415.513ZM246.583 464.716V465.716H247.583V464.716H246.583ZM197 464.716V463.716H196V464.716H197ZM197 491.415H196V492.415H197V491.415ZM246.583 491.415H247.583V490.415H246.583V491.415ZM246.583 541H245.583V542H246.583V541ZM273.283 541V542H274.283V541H273.283ZM273.283 491.415V490.415H272.283V491.415H273.283ZM322.487 491.415V492.415H323.487V491.415H322.487ZM322.487 464.716H323.487V463.716H322.487V464.716ZM273.283 464.716H272.283V465.716H273.283V464.716ZM246.583 416.513H273.283V414.513H246.583V416.513ZM247.583 464.716V415.513H245.583V464.716H247.583ZM197 465.716H246.583V463.716H197V465.716ZM198 491.415V464.716H196V491.415H198ZM246.583 490.415H197V492.415H246.583V490.415ZM247.583 541V491.415H245.583V541H247.583ZM273.283 540H246.583V542H273.283V540ZM272.283 491.415V541H274.283V491.415H272.283ZM322.487 490.415H273.283V492.415H322.487V490.415ZM321.487 464.716V491.415H323.487V464.716H321.487ZM273.283 465.716H322.487V463.716H273.283V465.716ZM272.283 415.513V464.716H274.283V415.513H272.283Z" fill="white" mask="url(#path-1-inside-1)"/>
</g>
<g filter="url(#filter1_f)">
<mask id="path-3-inside-2" fill="white">
<path fill-rule="evenodd" clip-rule="evenodd" d="M707.283 14.5132H680.583V63.7162H631V90.4155H680.583V140H707.283V90.4155H756.487V63.7161H707.283V14.5132Z"/>
</mask>
<path d="M680.583 14.5132V13.5132H679.583V14.5132H680.583ZM707.283 14.5132H708.283V13.5132H707.283V14.5132ZM680.583 63.7162V64.7162H681.583V63.7162H680.583ZM631 63.7162V62.7162H630V63.7162H631ZM631 90.4155H630V91.4155H631V90.4155ZM680.583 90.4155H681.583V89.4155H680.583V90.4155ZM680.583 140H679.583V141H680.583V140ZM707.283 140V141H708.283V140H707.283ZM707.283 90.4155V89.4155H706.283V90.4155H707.283ZM756.487 90.4155V91.4155H757.487V90.4155H756.487ZM756.487 63.7161H757.487V62.7161H756.487V63.7161ZM707.283 63.7161H706.283V64.7161H707.283V63.7161ZM680.583 15.5132H707.283V13.5132H680.583V15.5132ZM681.583 63.7162V14.5132H679.583V63.7162H681.583ZM631 64.7162H680.583V62.7162H631V64.7162ZM632 90.4155V63.7162H630V90.4155H632ZM680.583 89.4155H631V91.4155H680.583V89.4155ZM681.583 140V90.4155H679.583V140H681.583ZM707.283 139H680.583V141H707.283V139ZM706.283 90.4155V140H708.283V90.4155H706.283ZM756.487 89.4155H707.283V91.4155H756.487V89.4155ZM755.487 63.7161V90.4155H757.487V63.7161H755.487ZM707.283 64.7161H756.487V62.7161H707.283V64.7161ZM706.283 14.5132V63.7161H708.283V14.5132H706.283Z" fill="white" mask="url(#path-3-inside-2)"/>
</g>
<g filter="url(#filter2_f)">
<mask id="path-5-inside-3" fill="white">
<path fill-rule="evenodd" clip-rule="evenodd" d="M1303.82 93.4514H1178.23V324.89L945 324.89L945 450.477H1178.23V683.71H1303.82V450.477H1535.26V324.89L1303.82 324.89V93.4514Z"/>
</mask>
<path d="M1178.23 93.4514V92.4514H1177.23V93.4514H1178.23ZM1303.82 93.4514H1304.82V92.4514H1303.82V93.4514ZM1178.23 324.89V325.89H1179.23V324.89H1178.23ZM945 324.89L945 323.89H944V324.89H945ZM945 450.477H944L944 451.477H945V450.477ZM1178.23 450.477H1179.23V449.477H1178.23V450.477ZM1178.23 683.71H1177.23V684.71H1178.23V683.71ZM1303.82 683.71V684.71H1304.82V683.71H1303.82ZM1303.82 450.477V449.477H1302.82V450.477H1303.82ZM1535.26 450.477V451.477H1536.26V450.477H1535.26ZM1535.26 324.89H1536.26V323.89H1535.26V324.89ZM1303.82 324.89H1302.82V325.89H1303.82V324.89ZM1178.23 94.4514H1303.82V92.4514H1178.23V94.4514ZM1179.23 324.89V93.4514H1177.23V324.89H1179.23ZM945 325.89L1178.23 325.89V323.89L945 323.89L945 325.89ZM946 450.477L946 324.89H944L944 450.477H946ZM1178.23 449.477H945V451.477H1178.23V449.477ZM1179.23 683.71V450.477H1177.23V683.71H1179.23ZM1303.82 682.71H1178.23V684.71H1303.82V682.71ZM1302.82 450.477V683.71H1304.82V450.477H1302.82ZM1535.26 449.477H1303.82V451.477H1535.26V449.477ZM1534.26 324.89V450.477H1536.26V324.89H1534.26ZM1303.82 325.89L1535.26 325.89V323.89L1303.82 323.89V325.89ZM1302.82 93.4514V324.89H1304.82V93.4514H1302.82Z" fill="white" mask="url(#path-5-inside-3)"/>
</g>
<g filter="url(#filter3_f)">
<mask id="path-7-inside-4" fill="white">
<path fill-rule="evenodd" clip-rule="evenodd" d="M27.2825 124.513H0.583187V173.716H-49V200.415H0.583187V250H27.2825V200.415H76.4868V173.716H27.2825V124.513Z"/>
</mask>
<path d="M0.583187 124.513V123.513H-0.416813V124.513H0.583187ZM27.2825 124.513H28.2825V123.513H27.2825V124.513ZM0.583187 173.716V174.716H1.58319V173.716H0.583187ZM-49 173.716V172.716H-50V173.716H-49ZM-49 200.415H-50V201.415H-49V200.415ZM0.583187 200.415H1.58319V199.415H0.583187V200.415ZM0.583187 250H-0.416813V251H0.583187V250ZM27.2825 250V251H28.2825V250H27.2825ZM27.2825 200.415V199.415H26.2825V200.415H27.2825ZM76.4868 200.415V201.415H77.4868V200.415H76.4868ZM76.4868 173.716H77.4868V172.716H76.4868V173.716ZM27.2825 173.716H26.2825V174.716H27.2825V173.716ZM0.583187 125.513H27.2825V123.513H0.583187V125.513ZM1.58319 173.716V124.513H-0.416813V173.716H1.58319ZM-49 174.716H0.583187V172.716H-49V174.716ZM-48 200.415V173.716H-50V200.415H-48ZM0.583187 199.415H-49V201.415H0.583187V199.415ZM1.58319 250V200.415H-0.416813V250H1.58319ZM27.2825 249H0.583187V251H27.2825V249ZM26.2825 200.415V250H28.2825V200.415H26.2825ZM76.4868 199.415H27.2825V201.415H76.4868V199.415ZM75.4868 173.716V200.415H77.4868V173.716H75.4868ZM27.2825 174.716H76.4868V172.716H27.2825V174.716ZM26.2825 124.513V173.716H28.2825V124.513H26.2825Z" fill="white" mask="url(#path-7-inside-4)"/>
</g>
<g filter="url(#filter4_f)">
<path fill-rule="evenodd" clip-rule="evenodd" d="M284.283 405H257.583V454.203H208V480.902H257.583V530.487H284.283V480.902H333.487V454.203H284.283V405Z" fill="white"/>
</g>
<g filter="url(#filter5_f)">
<path fill-rule="evenodd" clip-rule="evenodd" d="M718.283 4H691.583V53.203H642V79.9023H691.583V129.487H718.283V79.9023H767.487V53.203H718.283V4Z" fill="white"/>
</g>
<g filter="url(#filter6_f)">
<path fill-rule="evenodd" clip-rule="evenodd" d="M1355.56 44H1229.97V275.439L996.742 275.439L996.742 401.026H1229.97V634.259H1355.56V401.026H1587V275.439L1355.56 275.439V44Z" fill="white"/>
</g>
<g filter="url(#filter7_f)">
<path fill-rule="evenodd" clip-rule="evenodd" d="M38.2825 114H11.5832V163.203H-38V189.902H11.5832V239.487H38.2825V189.902H87.4868V163.203H38.2825V114Z" fill="white"/>
</g>
</g>
<defs>
<filter id="filter0_f" x="193" y="411.513" width="133.487" height="133.487" filterUnits="userSpaceOnUse" color-interpolation-filters="sRGB">
<feFlood flood-opacity="0" result="BackgroundImageFix"/>
<feBlend mode="normal" in="SourceGraphic" in2="BackgroundImageFix" result="shape"/>
<feGaussianBlur stdDeviation="2" result="effect1_foregroundBlur"/>
</filter>
<filter id="filter1_f" x="627" y="10.5132" width="133.487" height="133.487" filterUnits="userSpaceOnUse" color-interpolation-filters="sRGB">
<feFlood flood-opacity="0" result="BackgroundImageFix"/>
<feBlend mode="normal" in="SourceGraphic" in2="BackgroundImageFix" result="shape"/>
<feGaussianBlur stdDeviation="2" result="effect1_foregroundBlur"/>
</filter>
<filter id="filter2_f" x="941" y="89.4514" width="598.259" height="598.259" filterUnits="userSpaceOnUse" color-interpolation-filters="sRGB">
<feFlood flood-opacity="0" result="BackgroundImageFix"/>
<feBlend mode="normal" in="SourceGraphic" in2="BackgroundImageFix" result="shape"/>
<feGaussianBlur stdDeviation="2" result="effect1_foregroundBlur"/>
</filter>
<filter id="filter3_f" x="-53" y="120.513" width="133.487" height="133.487" filterUnits="userSpaceOnUse" color-interpolation-filters="sRGB">
<feFlood flood-opacity="0" result="BackgroundImageFix"/>
<feBlend mode="normal" in="SourceGraphic" in2="BackgroundImageFix" result="shape"/>
<feGaussianBlur stdDeviation="2" result="effect1_foregroundBlur"/>
</filter>
<filter id="filter4_f" x="204" y="401" width="133.487" height="133.487" filterUnits="userSpaceOnUse" color-interpolation-filters="sRGB">
<feFlood flood-opacity="0" result="BackgroundImageFix"/>
<feBlend mode="normal" in="SourceGraphic" in2="BackgroundImageFix" result="shape"/>
<feGaussianBlur stdDeviation="2" result="effect1_foregroundBlur"/>
</filter>
<filter id="filter5_f" x="638" y="0" width="133.487" height="133.487" filterUnits="userSpaceOnUse" color-interpolation-filters="sRGB">
<feFlood flood-opacity="0" result="BackgroundImageFix"/>
<feBlend mode="normal" in="SourceGraphic" in2="BackgroundImageFix" result="shape"/>
<feGaussianBlur stdDeviation="2" result="effect1_foregroundBlur"/>
</filter>
<filter id="filter6_f" x="992.742" y="40" width="598.259" height="598.259" filterUnits="userSpaceOnUse" color-interpolation-filters="sRGB">
<feFlood flood-opacity="0" result="BackgroundImageFix"/>
<feBlend mode="normal" in="SourceGraphic" in2="BackgroundImageFix" result="shape"/>
<feGaussianBlur stdDeviation="2" result="effect1_foregroundBlur"/>
</filter>
<filter id="filter7_f" x="-42" y="110" width="133.487" height="133.487" filterUnits="userSpaceOnUse" color-interpolation-filters="sRGB">
<feFlood flood-opacity="0" result="BackgroundImageFix"/>
<feBlend mode="normal" in="SourceGraphic" in2="BackgroundImageFix" result="shape"/>
<feGaussianBlur stdDeviation="2" result="effect1_foregroundBlur"/>
</filter>
</defs>
</svg>
